solid plaque_percee_1cm - plaque_percee_1cm_ascii
 facet normal -1.000000 0.000000 0.000000
  outer loop
   vertex -0.250000 -0.050000 0.000000
   vertex -0.250000 0.050000 0.000000
   vertex -0.250000 -0.050000 -0.020000
  endloop
 endfacet
 facet normal -1.000000 0.000000 0.000000
  outer loop
   vertex -0.250000 -0.050000 -0.020000
   vertex -0.250000 0.050000 0.000000
   vertex -0.250000 0.050000 -0.020000
  endloop
 endfacet
 facet normal 0.000000 -1.000000 0.000000
  outer loop
   vertex 0.250000 -0.050000 0.000000
   vertex -0.250000 -0.050000 0.000000
   vertex 0.250000 -0.050000 -0.020000
  endloop
 endfacet
 facet normal 0.000000 -1.000000 0.000000
  outer loop
   vertex 0.250000 -0.050000 -0.020000
   vertex -0.250000 -0.050000 0.000000
   vertex -0.250000 -0.050000 -0.020000
  endloop
 endfacet
 facet normal 1.000000 0.000000 0.000000
  outer loop
   vertex 0.250000 0.050000 0.000000
   vertex 0.250000 -0.050000 0.000000
   vertex 0.250000 0.050000 -0.020000
  endloop
 endfacet
 facet normal 1.000000 0.000000 0.000000
  outer loop
   vertex 0.250000 0.050000 -0.020000
   vertex 0.250000 -0.050000 0.000000
   vertex 0.250000 -0.050000 -0.020000
  endloop
 endfacet
 facet normal 0.000000 1.000000 0.000000
  outer loop
   vertex -0.250000 0.050000 0.000000
   vertex 0.250000 0.050000 0.000000
   vertex -0.250000 0.050000 -0.020000
  endloop
 endfacet
 facet normal 0.000000 1.000000 0.000000
  outer loop
   vertex -0.250000 0.050000 -0.020000
   vertex 0.250000 0.050000 0.000000
   vertex 0.250000 0.050000 -0.020000
  endloop
 endfacet
 facet normal 0.000000 0.000000 1.000000
  outer loop
   vertex 0.250000 -0.050000 0.000000
   vertex 0.005000 0.000000 0.000000
   vertex 0.004330 -0.002500 0.000000
  endloop
 endfacet
 facet normal 0.000000 0.000000 1.000000
  outer loop
   vertex -0.250000 0.050000 0.000000
   vertex -0.005000 0.000000 0.000000
   vertex -0.004330 0.002500 0.000000
  endloop
 endfacet
 facet normal 0.000000 0.000000 1.000000
  outer loop
   vertex 0.004330 -0.002500 0.000000
   vertex 0.002500 -0.004330 0.000000
   vertex 0.250000 -0.050000 0.000000
  endloop
 endfacet
 facet normal 0.000000 0.000000 1.000000
  outer loop
   vertex 0.250000 -0.050000 0.000000
   vertex 0.002500 -0.004330 0.000000
   vertex 0.000000 -0.005000 0.000000
  endloop
 endfacet
 facet normal 0.000000 0.000000 1.000000
  outer loop
   vertex 0.250000 -0.050000 0.000000
   vertex 0.000000 -0.005000 0.000000
   vertex -0.250000 -0.050000 0.000000
  endloop
 endfacet
 facet normal 0.000000 0.000000 1.000000
  outer loop
   vertex -0.250000 -0.050000 0.000000
   vertex 0.000000 -0.005000 0.000000
   vertex -0.002500 -0.004330 0.000000
  endloop
 endfacet
 facet normal 0.000000 0.000000 1.000000
  outer loop
   vertex -0.250000 -0.050000 0.000000
   vertex -0.002500 -0.004330 0.000000
   vertex -0.250000 0.050000 0.000000
  endloop
 endfacet
 facet normal 0.000000 0.000000 1.000000
  outer loop
   vertex -0.250000 0.050000 0.000000
   vertex -0.002500 -0.004330 0.000000
   vertex -0.004330 -0.002500 0.000000
  endloop
 endfacet
 facet normal 0.000000 0.000000 1.000000
  outer loop
   vertex -0.250000 0.050000 0.000000
   vertex -0.004330 -0.002500 0.000000
   vertex -0.005000 0.000000 0.000000
  endloop
 endfacet
 facet normal 0.000000 0.000000 1.000000
  outer loop
   vertex -0.004330 0.002500 0.000000
   vertex -0.002500 0.004330 0.000000
   vertex -0.250000 0.050000 0.000000
  endloop
 endfacet
 facet normal 0.000000 0.000000 1.000000
  outer loop
   vertex -0.250000 0.050000 0.000000
   vertex -0.002500 0.004330 0.000000
   vertex 0.000000 0.005000 0.000000
  endloop
 endfacet
 facet normal 0.000000 0.000000 1.000000
  outer loop
   vertex -0.250000 0.050000 0.000000
   vertex 0.000000 0.005000 0.000000
   vertex 0.250000 0.050000 0.000000
  endloop
 endfacet
 facet normal 0.000000 0.000000 1.000000
  outer loop
   vertex 0.250000 0.050000 0.000000
   vertex 0.000000 0.005000 0.000000
   vertex 0.002500 0.004330 0.000000
  endloop
 endfacet
 facet normal 0.000000 0.000000 1.000000
  outer loop
   vertex 0.250000 0.050000 0.000000
   vertex 0.002500 0.004330 0.000000
   vertex 0.250000 -0.050000 0.000000
  endloop
 endfacet
 facet normal 0.000000 0.000000 1.000000
  outer loop
   vertex 0.250000 -0.050000 0.000000
   vertex 0.002500 0.004330 0.000000
   vertex 0.004330 0.002500 0.000000
  endloop
 endfacet
 facet normal 0.000000 0.000000 1.000000
  outer loop
   vertex 0.250000 -0.050000 0.000000
   vertex 0.004330 0.002500 0.000000
   vertex 0.005000 0.000000 0.000000
  endloop
 endfacet
 facet normal 0.000000 0.000000 -1.000000
  outer loop
   vertex -0.002500 0.004330 -0.020000
   vertex -0.250000 0.050000 -0.020000
   vertex 0.000000 0.005000 -0.020000
  endloop
 endfacet
 facet normal 0.000000 0.000000 -1.000000
  outer loop
   vertex 0.000000 0.005000 -0.020000
   vertex -0.250000 0.050000 -0.020000
   vertex 0.250000 0.050000 -0.020000
  endloop
 endfacet
 facet normal 0.000000 0.000000 -1.000000
  outer loop
   vertex 0.000000 0.005000 -0.020000
   vertex 0.250000 0.050000 -0.020000
   vertex 0.002500 0.004330 -0.020000
  endloop
 endfacet
 facet normal 0.000000 0.000000 -1.000000
  outer loop
   vertex -0.002500 0.004330 -0.020000
   vertex -0.004330 0.002500 -0.020000
   vertex -0.250000 0.050000 -0.020000
  endloop
 endfacet
 facet normal 0.000000 0.000000 -1.000000
  outer loop
   vertex -0.250000 0.050000 -0.020000
   vertex -0.004330 0.002500 -0.020000
   vertex -0.005000 0.000000 -0.020000
  endloop
 endfacet
 facet normal 0.000000 0.000000 -1.000000
  outer loop
   vertex -0.250000 0.050000 -0.020000
   vertex -0.005000 0.000000 -0.020000
   vertex -0.250000 -0.050000 -0.020000
  endloop
 endfacet
 facet normal 0.000000 0.000000 -1.000000
  outer loop
   vertex -0.250000 -0.050000 -0.020000
   vertex -0.005000 0.000000 -0.020000
   vertex -0.004330 -0.002500 -0.020000
  endloop
 endfacet
 facet normal 0.000000 0.000000 -1.000000
  outer loop
   vertex 0.002500 -0.004330 -0.020000
   vertex 0.250000 -0.050000 -0.020000
   vertex 0.000000 -0.005000 -0.020000
  endloop
 endfacet
 facet normal 0.000000 0.000000 -1.000000
  outer loop
   vertex 0.000000 -0.005000 -0.020000
   vertex 0.250000 -0.050000 -0.020000
   vertex -0.250000 -0.050000 -0.020000
  endloop
 endfacet
 facet normal 0.000000 0.000000 -1.000000
  outer loop
   vertex 0.000000 -0.005000 -0.020000
   vertex -0.250000 -0.050000 -0.020000
   vertex -0.002500 -0.004330 -0.020000
  endloop
 endfacet
 facet normal 0.000000 0.000000 -1.000000
  outer loop
   vertex -0.002500 -0.004330 -0.020000
   vertex -0.250000 -0.050000 -0.020000
   vertex -0.004330 -0.002500 -0.020000
  endloop
 endfacet
 facet normal 0.000000 0.000000 -1.000000
  outer loop
   vertex 0.002500 -0.004330 -0.020000
   vertex 0.004330 -0.002500 -0.020000
   vertex 0.250000 -0.050000 -0.020000
  endloop
 endfacet
 facet normal 0.000000 0.000000 -1.000000
  outer loop
   vertex 0.250000 -0.050000 -0.020000
   vertex 0.004330 -0.002500 -0.020000
   vertex 0.005000 0.000000 -0.020000
  endloop
 endfacet
 facet normal 0.000000 0.000000 -1.000000
  outer loop
   vertex 0.250000 -0.050000 -0.020000
   vertex 0.005000 0.000000 -0.020000
   vertex 0.250000 0.050000 -0.020000
  endloop
 endfacet
 facet normal 0.000000 0.000000 -1.000000
  outer loop
   vertex 0.250000 0.050000 -0.020000
   vertex 0.005000 0.000000 -0.020000
   vertex 0.004330 0.002500 -0.020000
  endloop
 endfacet
 facet normal 0.000000 0.000000 -1.000000
  outer loop
   vertex 0.250000 0.050000 -0.020000
   vertex 0.004330 0.002500 -0.020000
   vertex 0.002500 0.004330 -0.020000
  endloop
 endfacet
 facet normal -0.000013 0.000050 0.000000
  outer loop
   vertex 0.000000 -0.005000 -0.020000
   vertex 0.000000 -0.005000 0.000000
   vertex 0.002500 -0.004330 -0.020000
  endloop
 endfacet
 facet normal -0.000013 0.000050 0.000000
  outer loop
   vertex 0.002500 -0.004330 -0.020000
   vertex 0.000000 -0.005000 0.000000
   vertex 0.002500 -0.004330 0.000000
  endloop
 endfacet
 facet normal -0.000037 0.000037 0.000000
  outer loop
   vertex 0.002500 -0.004330 -0.020000
   vertex 0.002500 -0.004330 0.000000
   vertex 0.004330 -0.002500 -0.020000
  endloop
 endfacet
 facet normal -0.000037 0.000037 0.000000
  outer loop
   vertex 0.004330 -0.002500 -0.020000
   vertex 0.002500 -0.004330 0.000000
   vertex 0.004330 -0.002500 0.000000
  endloop
 endfacet
 facet normal -0.000050 0.000013 0.000000
  outer loop
   vertex 0.004330 -0.002500 -0.020000
   vertex 0.004330 -0.002500 0.000000
   vertex 0.005000 0.000000 -0.020000
  endloop
 endfacet
 facet normal -0.000050 0.000013 0.000000
  outer loop
   vertex 0.005000 0.000000 -0.020000
   vertex 0.004330 -0.002500 0.000000
   vertex 0.005000 0.000000 0.000000
  endloop
 endfacet
 facet normal -0.000050 -0.000013 0.000000
  outer loop
   vertex 0.005000 0.000000 -0.020000
   vertex 0.005000 0.000000 0.000000
   vertex 0.004330 0.002500 -0.020000
  endloop
 endfacet
 facet normal -0.000050 -0.000013 0.000000
  outer loop
   vertex 0.004330 0.002500 -0.020000
   vertex 0.005000 0.000000 0.000000
   vertex 0.004330 0.002500 0.000000
  endloop
 endfacet
 facet normal -0.000037 -0.000037 0.000000
  outer loop
   vertex 0.004330 0.002500 -0.020000
   vertex 0.004330 0.002500 0.000000
   vertex 0.002500 0.004330 -0.020000
  endloop
 endfacet
 facet normal -0.000037 -0.000037 0.000000
  outer loop
   vertex 0.002500 0.004330 -0.020000
   vertex 0.004330 0.002500 0.000000
   vertex 0.002500 0.004330 0.000000
  endloop
 endfacet
 facet normal -0.000013 -0.000050 0.000000
  outer loop
   vertex 0.002500 0.004330 -0.020000
   vertex 0.002500 0.004330 0.000000
   vertex 0.000000 0.005000 -0.020000
  endloop
 endfacet
 facet normal -0.000013 -0.000050 0.000000
  outer loop
   vertex 0.000000 0.005000 -0.020000
   vertex 0.002500 0.004330 0.000000
   vertex 0.000000 0.005000 0.000000
  endloop
 endfacet
 facet normal 0.000013 -0.000050 0.000000
  outer loop
   vertex 0.000000 0.005000 -0.020000
   vertex 0.000000 0.005000 0.000000
   vertex -0.002500 0.004330 -0.020000
  endloop
 endfacet
 facet normal 0.000013 -0.000050 0.000000
  outer loop
   vertex -0.002500 0.004330 -0.020000
   vertex 0.000000 0.005000 0.000000
   vertex -0.002500 0.004330 0.000000
  endloop
 endfacet
 facet normal 0.000037 -0.000037 0.000000
  outer loop
   vertex -0.002500 0.004330 -0.020000
   vertex -0.002500 0.004330 0.000000
   vertex -0.004330 0.002500 -0.020000
  endloop
 endfacet
 facet normal 0.000037 -0.000037 0.000000
  outer loop
   vertex -0.004330 0.002500 -0.020000
   vertex -0.002500 0.004330 0.000000
   vertex -0.004330 0.002500 0.000000
  endloop
 endfacet
 facet normal 0.000050 -0.000013 0.000000
  outer loop
   vertex -0.004330 0.002500 -0.020000
   vertex -0.004330 0.002500 0.000000
   vertex -0.005000 0.000000 -0.020000
  endloop
 endfacet
 facet normal 0.000050 -0.000013 0.000000
  outer loop
   vertex -0.005000 0.000000 -0.020000
   vertex -0.004330 0.002500 0.000000
   vertex -0.005000 0.000000 0.000000
  endloop
 endfacet
 facet normal 0.000050 0.000013 0.000000
  outer loop
   vertex -0.005000 0.000000 -0.020000
   vertex -0.005000 0.000000 0.000000
   vertex -0.004330 -0.002500 -0.020000
  endloop
 endfacet
 facet normal 0.000050 0.000013 0.000000
  outer loop
   vertex -0.004330 -0.002500 -0.020000
   vertex -0.005000 0.000000 0.000000
   vertex -0.004330 -0.002500 0.000000
  endloop
 endfacet
 facet normal 0.000037 0.000037 0.000000
  outer loop
   vertex -0.004330 -0.002500 -0.020000
   vertex -0.004330 -0.002500 0.000000
   vertex -0.002500 -0.004330 -0.020000
  endloop
 endfacet
 facet normal 0.000037 0.000037 0.000000
  outer loop
   vertex -0.002500 -0.004330 -0.020000
   vertex -0.004330 -0.002500 0.000000
   vertex -0.002500 -0.004330 0.000000
  endloop
 endfacet
 facet normal 0.000013 0.000050 0.000000
  outer loop
   vertex -0.002500 -0.004330 -0.020000
   vertex -0.002500 -0.004330 0.000000
   vertex 0.000000 -0.005000 -0.020000
  endloop
 endfacet
 facet normal 0.000013 0.000050 0.000000
  outer loop
   vertex 0.000000 -0.005000 -0.020000
   vertex -0.002500 -0.004330 0.000000
   vertex 0.000000 -0.005000 0.000000
  endloop
 endfacet
endsolid plaque_percee_1cm - plaque_percee_1cm_ascii
